<svg xmlns="http://www.w3.org/2000/svg" width="100%" viewBox="0 40 645 200" role="img">
<title>PIPSILY PRO</title>
<defs>
<linearGradient id="gA" gradientUnits="userSpaceOnUse" x1="56" y1="62" x2="236" y2="220">
<stop offset="0" stop-color="#9B5CF6"/><stop offset="0.5" stop-color="#5B7FF0"/><stop offset="1" stop-color="#22D3EE"/>
<animateTransform attributeName="gradientTransform" type="rotate" from="0 146 141" to="360 146 141" dur="7s" repeatCount="indefinite"/>
</linearGradient>
<linearGradient id="gFixed" x1="0" y1="0" x2="1" y2="1"><stop offset="0" stop-color="#9B5CF6"/><stop offset="0.5" stop-color="#5B7FF0"/><stop offset="1" stop-color="#22D3EE"/></linearGradient>
<linearGradient id="gPlay" x1="0" y1="0" x2="0" y2="1"><stop offset="0" stop-color="#ffffff"/><stop offset="1" stop-color="#cfe0ff"/></linearGradient>
<radialGradient id="screenGlow" cx="0.5" cy="0.4" r="0.72"><stop offset="0" stop-color="#3c2b80"/><stop offset="0.6" stop-color="#141233"/><stop offset="1" stop-color="#0a091c"/></radialGradient>
<radialGradient id="gloss" cx="0.5" cy="0" r="0.9"><stop offset="0" stop-color="#fff" stop-opacity="0.5"/><stop offset="0.55" stop-color="#fff" stop-opacity="0"/></radialGradient>
<radialGradient id="halo" cx="0.5" cy="0.5" r="0.5"><stop offset="0" stop-color="#5b7ff0" stop-opacity="0.45"/><stop offset="1" stop-color="#5b7ff0" stop-opacity="0"/></radialGradient>
<linearGradient id="gSheen" x1="0" y1="0" x2="1" y2="0"><stop offset="0" stop-color="#a9c2ff"/><stop offset="0.5" stop-color="#ffffff"/><stop offset="1" stop-color="#a9c2ff"/><animate attributeName="x1" values="-1;1" dur="3.5s" repeatCount="indefinite"/><animate attributeName="x2" values="0;2" dur="3.5s" repeatCount="indefinite"/></linearGradient>
<filter id="glow" x="-70%" y="-70%" width="240%" height="240%"><feGaussianBlur stdDeviation="6" result="b"/><feMerge><feMergeNode in="b"/><feMergeNode in="b"/><feMergeNode in="SourceGraphic"/></feMerge></filter>
<filter id="softGlow" x="-50%" y="-50%" width="200%" height="200%"><feDropShadow dx="0" dy="0" stdDeviation="6" flood-color="#6b5bff" flood-opacity="0.85"/></filter>
<clipPath id="screenClip"><rect x="60" y="66" width="172" height="150" rx="30"/></clipPath>
<clipPath id="proClip"><rect x="516" y="113" width="120" height="56" rx="28"/></clipPath>
</defs>
<ellipse cx="146" cy="142" rx="150" ry="135" fill="url(#halo)"><animate attributeName="opacity" values="0.6;1;0.6" dur="3.4s" repeatCount="indefinite"/></ellipse>
<g filter="url(#glow)"><rect x="60" y="66" width="172" height="150" rx="30" fill="url(#screenGlow)" stroke="url(#gA)" stroke-width="5"/></g>
<rect x="60" y="66" width="172" height="150" rx="30" fill="url(#screenGlow)" stroke="url(#gA)" stroke-width="5"/>
<g clip-path="url(#screenClip)">
<g opacity="0.10" stroke="#9fb4ff" stroke-width="1"><line x1="60" y1="84" x2="232" y2="84"/><line x1="60" y1="100" x2="232" y2="100"/><line x1="60" y1="116" x2="232" y2="116"/><line x1="60" y1="132" x2="232" y2="132"/><line x1="60" y1="148" x2="232" y2="148"/><line x1="60" y1="164" x2="232" y2="164"/><line x1="60" y1="180" x2="232" y2="180"/><line x1="60" y1="196" x2="232" y2="196"/></g>
<polygon points="-60,66 12,66 -28,216 -100,216" fill="#ffffff" opacity="0.16"><animateTransform attributeName="transform" type="translate" values="0,0;360,0" dur="3.8s" repeatCount="indefinite"/></polygon>
</g>
<g filter="url(#glow)"><path d="M130 106 L130 176 L190 141 Z" fill="#ffffff" opacity="0.9"><animate attributeName="opacity" values="0.55;1;0.55" dur="2.2s" repeatCount="indefinite"/></path></g>
<g transform-origin="160 141"><animateTransform attributeName="transform" type="scale" values="1;1.07;1" dur="2.2s" repeatCount="indefinite"/><path d="M130 106 L130 176 L190 141 Z" fill="url(#gPlay)"/></g>
<path d="M76 70 h140 a26 26 0 0 1 14 14 v16 a150 60 0 0 0 -168 0 v-16 a26 26 0 0 1 14 -14 z" fill="url(#gloss)"/>
<rect x="108" y="222" width="16" height="12" rx="4" fill="url(#gFixed)"/><rect x="168" y="222" width="16" height="12" rx="4" fill="url(#gFixed)"/>
<g filter="url(#softGlow)"><text x="266" y="170" font-family="'Segoe UI','Arial Black','Arial',sans-serif" font-weight="900" font-size="68" letter-spacing="-1" fill="url(#gSheen)">PIPSILY</text></g>
<rect x="268" y="187" width="230" height="6" rx="3" fill="url(#gFixed)"/>
<rect x="516" y="113" width="120" height="56" rx="28" fill="url(#gFixed)"/>
<rect x="516" y="115" width="120" height="22" rx="11" fill="#ffffff" opacity="0.20"/>
<text x="576" y="152" text-anchor="middle" font-family="'Segoe UI','Arial Black','Arial',sans-serif" font-weight="900" font-size="30" letter-spacing="1" fill="#0d0a2e">PRO</text>
<g clip-path="url(#proClip)"><rect x="516" y="113" width="26" height="56" fill="#ffffff" opacity="0.4" transform="skewX(-18)"><animate attributeName="x" values="500;660" dur="4s" repeatCount="indefinite"/><animate attributeName="opacity" values="0;0.4;0" dur="4s" repeatCount="indefinite"/></rect></g>
</svg>
